<svg xmlns="http://www.w3.org/2000/svg" width="37.633" height="46.218" viewBox="0 0 37.633 46.218"><defs><style>.a{fill:#fff;}</style></defs><path class="a" d="M31.43,24.554a10.215,10.215,0,0,0,6.2,9.352,25.294,25.294,0,0,1-3.2,6.573c-1.926,2.816-3.926,5.621-7.075,5.679-3.095.057-4.09-1.835-7.628-1.835S15.089,46.1,12.16,46.215c-3.04.115-5.355-3.045-7.3-5.85-3.969-5.738-7-16.215-2.929-23.286A11.314,11.314,0,0,1,11.5,11.286c2.985-.057,5.8,2.008,7.628,2.008s5.248-2.484,8.848-2.119a10.8,10.8,0,0,1,8.453,4.585,10.452,10.452,0,0,0-4.995,8.794M25.614,7.379A10.18,10.18,0,0,0,28.018,0,10.361,10.361,0,0,0,21.21,3.5a9.673,9.673,0,0,0-2.452,7.149,8.572,8.572,0,0,0,6.856-3.273" transform="translate(0)"/></svg>