<svg xmlns="http://www.w3.org/2000/svg" xmlns:xlink="http://www.w3.org/1999/xlink" width="40.621" height="46.48" viewBox="0 0 40.621 46.48"><defs><style>.a{fill:url(#a);}.b{fill:url(#b);}.c{fill:url(#c);}.d{fill:url(#d);}</style><linearGradient id="a" y1="0.5" x2="1" y2="0.5" gradientUnits="objectBoundingBox"><stop offset="0" stop-color="#63be6b"/><stop offset="0.506" stop-color="#5bbc6a"/><stop offset="1" stop-color="#4ab96a"/></linearGradient><linearGradient id="b" y1="0.5" x2="0.999" y2="0.5" gradientUnits="objectBoundingBox"><stop offset="0" stop-color="#3ec6f2"/><stop offset="1" stop-color="#45afe3"/></linearGradient><linearGradient id="c" y1="0.5" x2="1" y2="0.5" gradientUnits="objectBoundingBox"><stop offset="0" stop-color="#faa51a"/><stop offset="0.387" stop-color="#fab716"/><stop offset="0.741" stop-color="#fac412"/><stop offset="1" stop-color="#fac80f"/></linearGradient><linearGradient id="d" y1="0.5" x2="1" y2="0.5" gradientUnits="objectBoundingBox"><stop offset="0" stop-color="#ec3b50"/><stop offset="1" stop-color="#e7515b"/></linearGradient></defs><path class="a" d="M26.055,14.167,1.493.128a.989.989,0,0,0-1,.01A.983.983,0,0,0,0,.995S.01,2.289.02,4.42L17.911,22.311Z" transform="translate(0 0.001)"/><path class="b" d="M.2,44.4c.03,7.686.119,26.344.159,35.633L18.1,62.291Z" transform="translate(-0.18 -39.979)"/><path class="c" d="M202.012,150.335,187.954,142.3l-8.154,8.144,9.2,9.2,13.023-7.587a1,1,0,0,0,.5-.856A1.008,1.008,0,0,0,202.012,150.335Z" transform="translate(-161.899 -128.132)"/><path class="d" d="M1.7,241.932c.02,3.315.03,5.436.03,5.436a.971.971,0,0,0,.5.856.989.989,0,0,0,1,0L28.641,233.4l-9.2-9.2Z" transform="translate(-1.531 -201.878)"/></svg>