<svg xmlns="http://www.w3.org/2000/svg" width="95.918" height="56.782" viewBox="0 0 95.918 56.782"><defs><style>.a{fill:#403d3d;}.a,.b{fill-rule:evenodd;}.b{fill:#fff;}</style></defs><path class="a" d="M104.421,72.749A28.363,28.363,0,0,0,58.145,50.73a30.593,30.593,0,0,1,8.1,13.206H63.891A28.313,28.313,0,0,0,56.441,52.2a28.4,28.4,0,0,0-7.4,11.723H46.679A30.638,30.638,0,0,1,54.7,50.75a28.391,28.391,0,1,0,0,44,30.634,30.634,0,0,1-8.021-13.172h2.359a28.4,28.4,0,0,0,7.4,11.723A28.309,28.309,0,0,0,63.891,81.56H66.25a30.59,30.59,0,0,1-8.1,13.206,28.363,28.363,0,0,0,46.276-22.017Z" transform="translate(-8.503 -44.357)"/><path class="b" d="M85.6,97.478l1.96-10.5h2.478l.259,1.035a3.45,3.45,0,0,1,2.738-1.035l-.776,2.736c-.7,0-2.035-.184-2.885,2.96l-.888,4.809H85.6ZM47.612,84.3h2.857l-.586,2.783H51.42l-.512,2.27H49.443L48.637,93.6c-.147.806-.073,1.539,1.575,1.283l-.183,2.124a4.053,4.053,0,0,1-2.125.514c-.659,0-2.82-.4-2.27-3.26ZM59.99,92.8c.33-1.685,1.1-5.859-3.918-5.859-4.615,0-5.2,4.577-5.31,5.236s-.183,5.31,4.761,5.31a9.754,9.754,0,0,0,3.663-.476l.439-2.16a20.832,20.832,0,0,1-3.224.256c-1.135,0-2.966.074-2.637-2.307ZM44.9,89.43l.659-2.125a6.815,6.815,0,0,0-2.82-.4c-.4,0-3.832-.042-4.358,2.49-.4,1.941.308,2.744.989,3.039,1.1.476,1.722.916,2.308,1.209a.829.829,0,0,1-.367,1.575,11.279,11.279,0,0,1-3.772-.257l-.4,2.161a11.624,11.624,0,0,0,3.37.367c.7,0,4.1.183,4.577-2.967a2.285,2.285,0,0,0-.989-2.562,16.136,16.136,0,0,0-2.05-1.136c-.586-.256-1.025-1.244.037-1.537a9.344,9.344,0,0,1,2.82.146ZM26.371,97.486l2.38-12.671H24.065l-3.48,7.691-.55-7.691H15.458L13,97.486H15.86l1.758-9.155.77,9.155H21.1l3.992-8.935L23.4,97.486h2.967ZM29.52,87.27l-.439,2.27a31.315,31.315,0,0,1,3.552-.33c.989.037,2.088-.11,1.758,1.465-.732.074-5.859-.732-6.664,3.662a2.777,2.777,0,0,0,3,3.187A3.7,3.7,0,0,0,33.11,96.9l.366.586h2.673l1.136-5.713c.293-1.428.768-4.871-4.028-4.871A19.512,19.512,0,0,0,29.52,87.27Zm46.291.475a3.635,3.635,0,0,0-2.2-.512,3.934,3.934,0,0,0-3.478,3.479c-.476,3.039,1.611,4.54,4.541,3.552l.842,2.563a7.643,7.643,0,0,1-3.479.659c-2.967,0-6.189-2.636-4.724-7.983a6.885,6.885,0,0,1,6.446-5.31,4.735,4.735,0,0,1,3.919,1.685l-1.868,1.867Zm24.354.439c-.55-.4-.878-1.244-2.234-1.244-1.575,0-4.028-.293-5.419,4.468-.931,3.182.952,6.079,3,6.079A5.016,5.016,0,0,0,98,96.645l.368.842h3.075l2.491-13.33h-3Zm-22.3-.915-.44,2.27a31.313,31.313,0,0,1,3.553-.33c.989.037,2.088-.11,1.758,1.465-.732.074-5.859-.732-6.664,3.662a2.777,2.777,0,0,0,3,3.187,3.7,3.7,0,0,0,2.381-.624l.367.586H84.49l1.136-5.713c.293-1.428.768-4.871-4.029-4.871A19.5,19.5,0,0,0,77.862,87.27Z" transform="translate(-10.547 -62.435)"/><path class="a" d="M68.625,94.918h3.552c.183-1.025-.146-1.9-1.281-1.9A2.2,2.2,0,0,0,68.625,94.918Zm-20.032,1.9a3.184,3.184,0,0,0-2.454.256c-.916.623-1.172,1.72-.219,2.088a1.949,1.949,0,0,0,2.454-1.21Zm65.224-.33a3.463,3.463,0,0,0-.183-2.562c-.878-1.172-2.9-.246-3.515,2.051-.4,1.5.476,2.636,1.465,2.636,1.063,0,1.721-.843,2.234-2.125Zm-16.882.33a3.182,3.182,0,0,0-2.454.256c-.916.623-1.172,1.72-.219,2.088a1.947,1.947,0,0,0,2.453-1.21Z" transform="translate(-25.225 -66.458)"/><path class="b" d="M99.246,99.924l1.941-10.4h2.454l.256,1.025a3.418,3.418,0,0,1,2.71-1.025l-.732,2.747c-.695,0-2.051-.219-2.893,2.892l-.878,4.762H99.246Z" transform="translate(-49.721 -64.873)"/></svg>