<svg xmlns="http://www.w3.org/2000/svg" width="126.251" height="33.644" viewBox="0 0 126.251 33.644"><defs><style>.a{fill:#403d3d;}</style></defs><path class="a" d="M233.244-61.677c-.537,3.525-3.229,3.525-5.832,3.525h-1.481l1.04-6.581a.818.818,0,0,1,.808-.69h.68c1.773,0,3.446,0,4.31,1.009a3.282,3.282,0,0,1,.476,2.737m-1.133-9.2h-9.82a1.367,1.367,0,0,0-1.35,1.152l-3.968,25.18a.819.819,0,0,0,.186.659.819.819,0,0,0,.621.287h5.039a.955.955,0,0,0,.943-.805l1.127-7.141a1.365,1.365,0,0,1,1.347-1.152h3.107c6.47,0,10.2-3.129,11.178-9.334.439-2.712.018-4.844-1.252-6.337-1.4-1.641-3.872-2.51-7.158-2.51" transform="translate(-146.919 70.875)"/><path class="a" d="M118.358-61.677c-.537,3.525-3.229,3.525-5.833,3.525h-1.481l1.04-6.581a.818.818,0,0,1,.808-.69h.68c1.773,0,3.446,0,4.31,1.009a3.278,3.278,0,0,1,.477,2.737m-1.133-9.2H107.4a1.366,1.366,0,0,0-1.348,1.152l-3.969,25.18a.818.818,0,0,0,.186.659.818.818,0,0,0,.622.287h4.69a1.365,1.365,0,0,0,1.347-1.152L110-51.541a1.364,1.364,0,0,1,1.347-1.152h3.107c6.47,0,10.2-3.13,11.178-9.335.439-2.712.018-4.844-1.252-6.337-1.4-1.641-3.872-2.51-7.158-2.51m22.8,18.239a5.244,5.244,0,0,1-5.308,4.491,3.97,3.97,0,0,1-3.158-1.27,3.992,3.992,0,0,1-.737-3.3,5.261,5.261,0,0,1,5.27-4.525,3.963,3.963,0,0,1,3.135,1.281,4.048,4.048,0,0,1,.8,3.325m6.554-9.154h-4.7a.819.819,0,0,0-.81.693l-.205,1.314-.329-.476c-1.018-1.478-3.288-1.973-5.555-1.973a10.813,10.813,0,0,0-10.5,9.458,8.878,8.878,0,0,0,1.751,7.226,7.358,7.358,0,0,0,5.922,2.391,9,9,0,0,0,6.511-2.689l-.21,1.307a.818.818,0,0,0,.186.66.818.818,0,0,0,.623.286H143.5a1.365,1.365,0,0,0,1.348-1.152l2.542-16.1a.819.819,0,0,0-.187-.66.819.819,0,0,0-.623-.286" transform="translate(-102.077 70.875)"/><path class="a" d="M269.163-47.1a5.244,5.244,0,0,1-5.308,4.491,3.97,3.97,0,0,1-3.158-1.27,3.992,3.992,0,0,1-.737-3.3,5.26,5.26,0,0,1,5.27-4.525,3.963,3.963,0,0,1,3.135,1.281,4.048,4.048,0,0,1,.8,3.325m6.554-9.154h-4.7a.819.819,0,0,0-.81.693L270-54.251l-.329-.476c-1.018-1.478-3.288-1.973-5.555-1.973a10.815,10.815,0,0,0-10.5,9.458,8.878,8.878,0,0,0,1.752,7.226,7.358,7.358,0,0,0,5.922,2.391,9.005,9.005,0,0,0,6.512-2.689l-.21,1.307a.815.815,0,0,0,.184.659.815.815,0,0,0,.622.286h4.233a1.367,1.367,0,0,0,1.35-1.152l2.542-16.1a.819.819,0,0,0-.187-.66.819.819,0,0,0-.623-.286" transform="translate(-161.171 65.342)"/><path class="a" d="M202.12-55.973h-4.728a1.359,1.359,0,0,0-1.127.6l-6.521,9.6L186.981-55a1.367,1.367,0,0,0-1.308-.975h-4.646a.819.819,0,0,0-.666.343.819.819,0,0,0-.109.741l5.2,15.277-4.895,6.907a.819.819,0,0,0-.058.849.819.819,0,0,0,.727.443h4.723A1.367,1.367,0,0,0,187.073-32l15.718-22.687a.818.818,0,0,0,.054-.846.818.818,0,0,0-.725-.439" transform="translate(-132.573 65.059)"/><path class="a" d="M296.456-70.181,292.425-44.54a.819.819,0,0,0,.187.659.819.819,0,0,0,.622.287h4.053a1.366,1.366,0,0,0,1.348-1.152l3.974-25.181a.818.818,0,0,0-.186-.66.818.818,0,0,0-.623-.286h-4.535a.817.817,0,0,0-.809.691" transform="translate(-176.369 70.875)"/></svg>