<svg xmlns="http://www.w3.org/2000/svg" width="73.874" height="40.766" viewBox="0 0 73.874 40.766"><defs><style>.a{fill:#403d3d;fill-rule:evenodd;}</style></defs><path class="a" d="M29.625,72.744,36.16,51.194h5.832L35.456,72.744ZM27.018,51.2l-5.246,9.135c-1.335,2.393-2.116,3.6-2.491,5.113H19.2c.093-1.917-.174-4.27-.2-5.6L18.422,51.2H8.6l-.1.58c2.522,0,4.018,1.267,4.429,3.858l1.913,17.107h6.042L33.1,51.2ZM72.369,72.744l-.161-3.205-7.282-.006-1.489,3.211H57.105l11.48-21.509h7.771L78.3,72.744H72.369ZM71.7,60.032a49.443,49.443,0,0,1-.011-5.063H71.6c-.355,1.07-1.879,4.282-2.55,5.863l-2.17,4.724H72l-.3-5.524ZM48.115,73.357a16.308,16.308,0,0,1-8.8-2.47l2.778-4.243c1.751.979,3.126,2.11,6.29,2.11a2.706,2.706,0,0,0,2.554-1.228c.811-1.4-.187-2.156-2.465-3.446l-1.125-.731c-3.377-2.308-4.838-4.5-3.248-8.325,1.017-2.447,3.7-4.3,8.126-4.3a13.057,13.057,0,0,1,7.582,2.61l-3.194,3.746a7.093,7.093,0,0,0-4.52-1.982A2.718,2.718,0,0,0,49.6,56.21c-.607,1.2.2,2.024,1.971,3.126l1.338.851c4.1,2.586,5.077,5.3,4.049,7.833-1.767,4.364-5.227,5.338-8.847,5.338ZM13.855,91.487c15.08-6.463,36.24-12.321,64.264-6.455l.294-7.108C48.846,74.7,27.63,84.113,13.855,90.787v.7ZM79.9,54.527h-.384V52.191H80.4c.564,0,.852.2.852.672a.6.6,0,0,1-.61.637l.654,1.027H80.86l-.6-1H79.9v1Zm.428-1.326c.288,0,.542-.028.542-.367,0-.282-.277-.316-.507-.316H79.9V53.2Zm-.011,2.229a2.111,2.111,0,1,1,2.066-2.111A2.031,2.031,0,0,1,80.313,55.43Zm0-3.854a1.749,1.749,0,1,0,1.614,1.744A1.638,1.638,0,0,0,80.313,51.576Z" transform="translate(-8.504 -50.721)"/></svg>